<?xml version="1.0" standalone="no"?>
<!DOCTYPE svg PUBLIC "-//W3C//DTD SVG 20010904//EN"
 "http://www.w3.org/TR/2001/REC-SVG-20010904/DTD/svg10.dtd">
<svg version="1.0" xmlns="http://www.w3.org/2000/svg"
 width="48.000000pt" height="48.000000pt" viewBox="0 0 48.000000 48.000000"
 preserveAspectRatio="xMidYMid meet">

<g transform="translate(0.000000,48.000000) scale(0.100000,-0.100000)"
fill="#000000" stroke="none">
<path d="M153 379 c-100 -64 -99 -217 1 -278 73 -45 181 -19 225 53 45 73 19
181 -53 225 -45 28 -129 28 -173 0z m157 -25 c81 -48 81 -180 0 -228 -36 -21
-104 -21 -140 0 -80 48 -81 178 -1 227 34 21 105 21 141 1z"/>
<path d="M160 267 c0 -7 18 -31 40 -52 l40 -39 40 39 c39 38 51 65 30 65 -6 0
-24 -15 -40 -32 l-30 -33 -30 33 c-31 34 -50 41 -50 19z"/>
</g>
</svg>
